<svg width="50" height="50" viewBox="0 0 50 50" fill="none" xmlns="http://www.w3.org/2000/svg">
<circle cx="25" cy="25" r="25" fill="#03BFE8"/>
<path d="M16.2 12.2002C15.1391 12.2002 14.1217 12.6216 13.3715 13.3718C12.6214 14.1219 12.2 15.1393 12.2 16.2002V30.6002C12.2 31.6611 12.6214 32.6785 13.3715 33.4286C14.1217 34.1788 15.1391 34.6002 16.2 34.6002H24.16C24.336 34.0226 24.6128 33.4802 24.976 33.0002H16.2C15.5634 33.0002 14.953 32.7473 14.5029 32.2973C14.0528 31.8472 13.8 31.2367 13.8 30.6002V18.5986H33V24.909L33.1632 24.7458C33.5888 24.3186 34.0784 23.9938 34.6 23.7698V16.2002C34.6 15.1393 34.1785 14.1219 33.4284 13.3718C32.6782 12.6216 31.6608 12.2002 30.6 12.2002H16.2ZM13.7984 16.1986C13.7984 15.5621 14.0512 14.9516 14.5013 14.5015C14.9514 14.0515 15.5618 13.7986 16.1984 13.7986H30.5984C31.2349 13.7986 31.8453 14.0515 32.2954 14.5015C32.7455 14.9516 32.9984 15.5621 32.9984 16.1986V16.9986H13.7984V16.1986ZM22.3632 20.4322C22.5131 20.5822 22.5974 20.7857 22.5974 20.9978C22.5974 21.2099 22.5131 21.4134 22.3632 21.5634L18.9296 25.0002L22.3632 28.4338C22.5089 28.5847 22.5895 28.7868 22.5877 28.9965C22.5859 29.2063 22.5017 29.4069 22.3534 29.5553C22.2051 29.7036 22.0044 29.7877 21.7947 29.7895C21.5849 29.7914 21.3828 29.7107 21.232 29.565L17.232 25.565C17.082 25.415 16.9977 25.2115 16.9977 24.9994C16.9977 24.7873 17.082 24.5838 17.232 24.4338L21.232 20.4338C21.382 20.2838 21.5854 20.1996 21.7976 20.1996C22.0097 20.1996 22.2131 20.2822 22.3632 20.4322ZM25.2336 28.4322C25.0835 28.5824 24.9994 28.7861 24.9995 28.9984C24.9997 29.2107 25.0841 29.4142 25.2344 29.5642C25.3846 29.7142 25.5882 29.7984 25.8005 29.7982C26.0128 29.7981 26.2163 29.7136 26.3664 29.5634L30.3664 25.5634C30.5163 25.4134 30.6006 25.2099 30.6006 24.9978C30.6006 24.7857 30.5163 24.5822 30.3664 24.4322L26.3664 20.4322C26.2163 20.282 26.0128 20.1975 25.8005 20.1974C25.5882 20.1972 25.3846 20.2814 25.2344 20.4314C25.0841 20.5814 24.9997 20.7849 24.9995 20.9972C24.9994 21.2095 25.0835 21.4132 25.2336 21.5634L28.6688 25.0002L25.2336 28.4322ZM34.2944 25.877L26.5664 33.605C26.1165 34.0554 25.7975 34.6194 25.6432 35.237L25.0432 37.6338C24.984 37.8722 24.9875 38.1218 25.0533 38.3584C25.1191 38.5951 25.245 38.8107 25.4188 38.9843C25.5925 39.1578 25.8082 39.2835 26.0449 39.3491C26.2816 39.4147 26.5312 39.418 26.7696 39.3586L29.1664 38.7602C29.7842 38.6057 30.3483 38.286 30.7984 37.8354L38.5264 30.1074C39.0802 29.5447 39.3892 28.7859 39.386 27.9964C39.3827 27.2069 39.0676 26.4507 38.5092 25.8925C37.9509 25.3344 37.1945 25.0195 36.405 25.0166C35.6155 25.0137 34.8568 25.323 34.2944 25.877Z" fill="white"/>
</svg>
