<svg width="96" height="94" viewBox="0 0 96 94" fill="none" xmlns="http://www.w3.org/2000/svg">
<g id="shape_90">
<path id="Vector" d="M21.38 8.87396C21.38 11.2105 20.4518 13.4514 18.7996 15.1036C17.1474 16.7558 14.9065 17.684 12.5699 17.684C10.2334 17.684 7.99253 16.7558 6.34033 15.1036C4.68814 13.4514 3.76001 11.2105 3.76001 8.87396C3.76001 6.53741 4.68814 4.29654 6.34033 2.64435C7.99253 0.992153 10.2334 0.0639648 12.5699 0.0639648C14.9065 0.0639648 17.1474 0.992153 18.7996 2.64435C20.4518 4.29654 21.38 6.53741 21.38 8.87396Z" fill="#03BFE8"/>
<path id="Vector_2" d="M84.6767 19.9913C83.4094 19.8087 82.1915 19.3706 81.0927 18.702C79.9939 18.0334 79.0356 17.1473 78.2726 16.0945C77.5096 15.0417 76.9569 13.8427 76.6458 12.5659C76.3347 11.2892 76.2715 9.95972 76.4598 8.65343C76.648 7.34714 77.084 6.0896 77.7428 4.95263C78.4017 3.81565 79.2706 2.8215 80.2998 2.02694C81.3291 1.23237 82.4984 0.65295 83.7413 0.321766C84.9841 -0.00941893 86.2761 -0.0858848 87.5434 0.0967291C88.8107 0.279349 90.0286 0.71748 91.1274 1.3861C92.2262 2.05471 93.1844 2.94073 93.9474 3.99355C94.7104 5.04637 95.2632 6.24537 95.5743 7.52211C95.8853 8.79886 95.9485 10.1283 95.7603 11.4346C95.5721 12.7409 95.1361 13.9985 94.4772 15.1354C93.8183 16.2724 92.9495 17.2666 91.9203 18.0611C90.8911 18.8557 89.7217 19.4351 88.4788 19.7663C87.2359 20.0975 85.944 20.1739 84.6767 19.9913Z" fill="white"/>
<path id="Vector_3" d="M57.79 48.2141C57.79 52.2056 56.2044 56.0336 53.382 58.856C50.5595 61.6784 46.7315 63.2641 42.74 63.2641C38.7485 63.2641 34.9204 61.6784 32.098 58.856C29.2756 56.0336 27.6899 52.2056 27.6899 48.2141C27.6899 44.2225 29.2756 40.3945 32.098 37.5721C34.9204 34.7497 38.7485 33.1641 42.74 33.1641C46.7315 33.1641 50.5595 34.7497 53.382 37.5721C56.2044 40.3945 57.79 44.2225 57.79 48.2141Z" fill="white"/>
<path id="Vector_4" d="M14.78 84.0841C14.78 86.044 14.0014 87.9237 12.6155 89.3096C11.2296 90.6955 9.34996 91.4741 7.39001 91.4741C5.43006 91.4741 3.55032 90.6955 2.16443 89.3096C0.778535 87.9237 0 86.044 0 84.0841C0 82.1241 0.778535 80.2445 2.16443 78.8586C3.55032 77.4727 5.43006 76.6941 7.39001 76.6941C9.34996 76.6941 11.2296 77.4727 12.6155 78.8586C14.0014 80.2445 14.78 82.1241 14.78 84.0841Z" fill="#03BFE8"/>
<path id="Vector_5" d="M87.3199 85.784C87.3199 87.8156 86.5129 89.7639 85.0764 91.2005C83.6399 92.637 81.6916 93.444 79.66 93.444C77.6285 93.444 75.6801 92.637 74.2435 91.2005C72.807 89.7639 72 87.8156 72 85.784C72 83.7525 72.807 81.8041 74.2435 80.3676C75.6801 78.9311 77.6285 78.124 79.66 78.124C81.6916 78.124 83.6399 78.9311 85.0764 80.3676C86.5129 81.8041 87.3199 83.7525 87.3199 85.784Z" fill="#03BFE8"/>
</g>
</svg>
