<svg width="74" height="65" viewBox="0 0 74 65" fill="none" xmlns="http://www.w3.org/2000/svg">
<g id="shape_88">
<path id="Vector" d="M42.68 21.34C42.68 26.9997 40.4317 32.4276 36.4297 36.4296C32.4276 40.4317 26.9997 42.68 21.34 42.68C15.6803 42.68 10.2524 40.4317 6.25034 36.4296C2.24831 32.4276 0 26.9997 0 21.34C0 15.6802 2.24831 10.2523 6.25034 6.25031C10.2524 2.24828 15.6803 0 21.34 0C26.9997 0 32.4276 2.24828 36.4297 6.25031C40.4317 10.2523 42.68 15.6802 42.68 21.34Z" fill="white"/>
<path id="Vector_2" d="M73.76 50.4201C73.76 54.0827 72.305 57.5954 69.7152 60.1852C67.1253 62.7751 63.6127 64.2301 59.95 64.2301C56.2874 64.2301 52.7748 62.7751 50.1849 60.1852C47.595 57.5954 46.14 54.0827 46.14 50.4201C46.14 46.7575 47.595 43.2448 50.1849 40.655C52.7748 38.0651 56.2874 36.6101 59.95 36.6101C63.6127 36.6101 67.1253 38.0651 69.7152 40.655C72.305 43.2448 73.76 46.7575 73.76 50.4201Z" fill="#03BFE8"/>
</g>
</svg>
