<svg width="50" height="50" viewBox="0 0 50 50" fill="none" xmlns="http://www.w3.org/2000/svg">
<g id="Icon">
<circle id="Ellipse 2" cx="25" cy="25" r="25" fill="#03BFE8"/>
<g id="Group">
<path id="Vector" d="M27.8918 21.0912C29.0074 21.0912 29.9118 20.1869 29.9118 19.0713C29.9118 17.9556 29.0074 17.0513 27.8918 17.0513C26.7762 17.0513 25.8718 17.9556 25.8718 19.0713C25.8718 20.1869 26.7762 21.0912 27.8918 21.0912Z" stroke="white" stroke-width="2" stroke-linecap="round" stroke-linejoin="round"/>
<path id="Vector_2" d="M19.812 31.1889C20.3698 31.1889 20.822 30.7367 20.822 30.1789C20.822 29.6211 20.3698 29.1689 19.812 29.1689C19.2542 29.1689 18.802 29.6211 18.802 30.1789C18.802 30.7367 19.2542 31.1889 19.812 31.1889Z" stroke="white" stroke-width="2" stroke-linecap="round" stroke-linejoin="round"/>
<path id="Vector_3" d="M19.8111 24.1205C20.9267 24.1205 21.8311 23.2162 21.8311 22.1006C21.8311 20.9849 20.9267 20.0806 19.8111 20.0806C18.6955 20.0806 17.7911 20.9849 17.7911 22.1006C17.7911 23.2162 18.6955 24.1205 19.8111 24.1205Z" stroke="white" stroke-width="2" stroke-linecap="round" stroke-linejoin="round"/>
<path id="Vector_4" d="M29.9518 35.7955C29.9293 35.4037 29.7931 35.0269 29.5599 34.7112C29.3268 34.3955 29.0067 34.1546 28.6388 34.0179C27.7252 33.7176 26.9486 33.1012 26.4488 32.2796C25.949 31.458 25.7586 30.485 25.912 29.5356C26.0653 28.5862 26.5524 27.7227 27.2855 27.1002C28.0186 26.4778 28.9497 26.1373 29.9114 26.1399H33.6888C34.3367 26.1417 34.9755 25.9877 35.5513 25.6908C36.1272 25.3939 36.6232 24.9629 36.9975 24.4341C37.3718 23.9053 37.6134 23.2943 37.702 22.6525C37.7906 22.0107 37.7236 21.357 37.5066 20.7466C36.7031 18.478 35.2917 16.474 33.4264 14.9533C31.5611 13.4327 29.3138 12.4539 26.9299 12.124C24.5461 11.7941 22.1174 12.1257 19.9092 13.0826C17.7011 14.0395 15.7984 15.5848 14.409 17.5499C13.0197 19.5149 12.1971 21.824 12.0312 24.2248C11.8653 26.6257 12.3625 29.026 13.4684 31.1634C14.5743 33.3009 16.2463 35.0933 18.3019 36.3448C20.3575 37.5963 22.7174 38.2588 25.124 38.2599C26.3125 38.2632 27.4956 38.1 28.6388 37.7751C29.0587 37.6574 29.4223 37.3928 29.6633 37.0294C29.9044 36.666 30.0067 36.2281 29.9518 35.7955Z" stroke="white" stroke-width="2" stroke-linecap="round" stroke-linejoin="round"/>
</g>
</g>
</svg>
