<svg width="80" height="62" viewBox="0 0 80 62" fill="none" xmlns="http://www.w3.org/2000/svg">
<g id="shape_25">
<path id="Vector" d="M3.92005 59.556C3.91915 59.9716 3.71814 60.3698 3.36121 60.6631C3.00427 60.9563 2.52062 61.1207 2.01673 61.12L1.89673 61.1198C1.64722 61.1194 1.40028 61.0786 1.16992 60.9995C0.939572 60.9204 0.730327 60.8047 0.554202 60.659C0.378077 60.5132 0.238519 60.3404 0.143435 60.1501C0.048352 59.9599 -0.000430872 59.7561 2.8671e-06 59.5504L1.89673 30.5L0.122806 1.56391C0.123707 1.14839 0.32483 0.750195 0.681766 0.456899C1.0387 0.163603 1.52223 -0.000719979 2.02613 2.37149e-06L2.14612 0.000153362C2.39563 0.000510406 2.6427 0.0413754 2.87305 0.120442C3.1034 0.199509 3.31253 0.315236 3.48865 0.460976C3.66478 0.606716 3.80446 0.779639 3.89954 0.969864C3.99462 1.16009 4.04328 1.3639 4.04285 1.56965L3.92005 59.556Z" fill="white"/>
<path id="Vector_2" d="M32.3015 18.9498C32.3015 20.5703 31.6578 22.1244 30.512 23.2703C29.3661 24.4161 27.812 25.0599 26.1915 25.0599C24.5711 25.0599 23.0169 24.4161 21.8711 23.2703C20.7252 22.1244 20.0815 20.5703 20.0815 18.9498C20.0815 17.3294 20.7252 15.7753 21.8711 14.6295C23.0169 13.4836 24.5711 12.8398 26.1915 12.8398C27.812 12.8398 29.3661 13.4836 30.512 14.6295C31.6578 15.7753 32.3015 17.3294 32.3015 18.9498Z" fill="#03BFE8"/>
<path id="Vector_3" d="M64.9915 19.0599C64.9915 20.6857 64.3456 22.2449 63.196 23.3945C62.0464 24.5441 60.4872 25.1899 58.8615 25.1899C57.2357 25.1899 55.6765 24.5441 54.5269 23.3945C53.3773 22.2449 52.7314 20.6857 52.7314 19.0599C52.7314 17.4342 53.3773 15.8749 54.5269 14.7253C55.6765 13.5757 57.2357 12.9299 58.8615 12.9299C60.4872 12.9299 62.0464 13.5757 63.196 14.7253C64.3456 15.8749 64.9915 17.4342 64.9915 19.0599Z" fill="white"/>
<path id="Vector_4" d="M46.4114 44.2699C46.4114 45.0749 46.2528 45.8721 45.9447 46.6158C45.6366 47.3595 45.1851 48.0353 44.6158 48.6045C44.0466 49.1737 43.3709 49.6252 42.6272 49.9333C41.8835 50.2414 41.0864 50.3999 40.2814 50.3999C38.6556 50.3999 37.0964 49.7541 35.9468 48.6045C34.7972 47.4549 34.1514 45.8957 34.1514 44.2699C34.1514 42.6441 34.7972 41.085 35.9468 39.9354C37.0964 38.7858 38.6556 38.1399 40.2814 38.1399C41.0864 38.1399 41.8835 38.2984 42.6272 38.6065C43.3709 38.9146 44.0466 39.3661 44.6158 39.9354C45.1851 40.5046 45.6366 41.1803 45.9447 41.9241C46.2528 42.6678 46.4114 43.4649 46.4114 44.2699Z" fill="white"/>
<path id="Vector_5" d="M79.5115 44.2899C79.5115 45.9104 78.8678 47.4645 77.7219 48.6104C76.5761 49.7562 75.022 50.3999 73.4015 50.3999C71.781 50.3999 70.2269 49.7562 69.0811 48.6104C67.9352 47.4645 67.2915 45.9104 67.2915 44.2899C67.2915 42.6694 67.9352 41.1153 69.0811 39.9695C70.2269 38.8236 71.781 38.1799 73.4015 38.1799C75.022 38.1799 76.5761 38.8236 77.7219 39.9695C78.8678 41.1153 79.5115 42.6694 79.5115 44.2899Z" fill="#03BFE8"/>
</g>
</svg>
