<svg width="86" height="71" viewBox="0 0 86 71" fill="none" xmlns="http://www.w3.org/2000/svg">
<g id="shape_97">
<path id="Vector" d="M2.95139 11.3744C0.541389 10.3813 0.521367 5.59785 1.24137 4.07769C3.77137 -1.22258 10.4114 -0.421947 12.6114 5.08101C12.6825 5.26233 12.8043 5.419 12.9622 5.53225C13.1201 5.6455 13.3073 5.71053 13.5014 5.71948C19.2914 5.95258 24.3414 4.54389 28.7714 9.16516C28.8908 9.29181 29.0404 9.38463 29.2053 9.43442C29.3702 9.48421 29.5447 9.48922 29.7114 9.44893C45.5114 5.83096 60.3914 14.9113 65.1614 30.427C65.2252 30.6326 65.3527 30.8122 65.5253 30.9398C65.6979 31.0673 65.9067 31.1362 66.1214 31.1365H72.9914C73.175 31.1369 73.3552 31.086 73.5122 30.9895C73.6692 30.8929 73.7969 30.7544 73.8814 30.5892C78.3014 21.8635 90.1014 30.194 83.8914 36.9029C80.6447 40.4094 77.2113 39.879 73.5913 35.3118C73.4976 35.1948 73.379 35.1004 73.244 35.0356C73.1091 34.9707 72.9613 34.937 72.8114 34.9369H66.9014C66.7684 34.9368 66.6367 34.9637 66.5141 35.0159C66.3914 35.0681 66.2803 35.1445 66.1872 35.2408C66.094 35.3371 66.0208 35.4512 65.9717 35.5765C65.9226 35.7018 65.8987 35.8358 65.9014 35.9705C66.0814 45.5914 62.8448 53.4557 56.1914 59.5634C50.0514 65.1845 42.798 67.7756 34.4314 67.3364C26.1114 66.9007 20.1014 67.0223 12.7814 67.2858C12.526 67.2919 12.2817 67.4011 12.1014 67.5898C8.06135 71.7043 4.58141 71.8259 1.66141 67.9546C-3.46859 61.1545 7.66138 53.6753 12.5714 62.5429C12.6594 62.6995 12.7862 62.8298 12.9389 62.9206C13.0917 63.0113 13.2651 63.0593 13.4414 63.0597L18.6514 63.0699C20.2447 63.0699 20.4047 62.5834 19.1314 61.6105C14.2047 57.8405 10.8414 53.2801 9.04136 47.9291C6.31469 39.8014 6.90136 31.9641 10.8014 24.4174C13.6414 18.911 17.7514 14.6884 23.1314 11.7494C25.2914 10.5671 25.1447 9.93198 22.6914 9.84415L13.0114 9.49958C12.8562 9.49353 12.7019 9.52431 12.5612 9.58946C12.4205 9.65461 12.2972 9.75227 12.2014 9.87455C10.2614 12.3068 6.2214 14.2121 3.5914 11.7089C3.49807 11.6278 3.28472 11.5163 2.95139 11.3744ZM9.07138 6.57077C9.07138 6.266 9.01215 5.96422 8.89707 5.68265C8.78198 5.40108 8.61332 5.14522 8.40067 4.92972C8.18802 4.71421 7.93559 4.54328 7.65775 4.42665C7.37991 4.31002 7.08213 4.24999 6.78141 4.24999C6.17406 4.24999 5.59154 4.49449 5.16208 4.92972C4.73262 5.36495 4.49137 5.95526 4.49137 6.57077C4.49137 7.18627 4.73262 7.77656 5.16208 8.21179C5.59154 8.64702 6.17406 8.89152 6.78141 8.89152C7.08213 8.89152 7.37991 8.83149 7.65775 8.71486C7.93559 8.59823 8.18802 8.42729 8.40067 8.21179C8.61332 7.99628 8.78198 7.74045 8.89707 7.45889C9.01215 7.17732 9.07138 6.87554 9.07138 6.57077ZM61.3318 33.6523C60.7822 30.3937 59.5967 27.2781 57.8431 24.4833C56.0894 21.6886 53.802 19.2695 51.1114 17.3641C48.4207 15.4587 45.3796 14.1043 42.1615 13.3783C38.9435 12.6523 35.6116 12.5689 32.3561 13.1329C25.7812 14.2718 19.9167 17.9785 16.0525 23.4373C12.1883 28.8962 10.641 35.6601 11.751 42.2412C12.3006 45.4998 13.486 48.6154 15.2397 51.4102C16.9933 54.2049 19.2807 56.624 21.9713 58.5294C24.662 60.4349 27.7031 61.7892 30.9212 62.5152C34.1392 63.2412 37.4712 63.3246 40.7267 62.7607C47.3015 61.6217 53.1661 57.9151 57.0303 52.4562C60.8945 46.9973 62.4418 40.2334 61.3318 33.6523ZM81.9814 32.9809C81.9814 32.352 81.7349 31.7488 81.2961 31.3041C80.8572 30.8593 80.262 30.6095 79.6414 30.6095C79.0208 30.6095 78.4256 30.8593 77.9867 31.3041C77.5479 31.7488 77.3014 32.352 77.3014 32.9809C77.3014 33.6099 77.5479 34.2131 77.9867 34.6578C78.4256 35.1025 79.0208 35.3524 79.6414 35.3524C79.9487 35.3524 80.253 35.291 80.5369 35.1718C80.8208 35.0527 81.0788 34.878 81.2961 34.6578C81.5133 34.4376 81.6857 34.1762 81.8033 33.8884C81.9209 33.6007 81.9814 33.2924 81.9814 32.9809ZM8.85135 64.5191C8.85135 63.9009 8.60904 63.308 8.17771 62.8709C7.74637 62.4338 7.16136 62.1882 6.55136 62.1882C5.94137 62.1882 5.35636 62.4338 4.92502 62.8709C4.49369 63.308 4.25138 63.9009 4.25138 64.5191C4.25138 65.1373 4.49369 65.7301 4.92502 66.1673C5.35636 66.6044 5.94137 66.85 6.55136 66.85C7.16136 66.85 7.74637 66.6044 8.17771 66.1673C8.60904 65.7301 8.85135 65.1373 8.85135 64.5191Z" fill="#03BFE8"/>
<path id="Vector_2" d="M40.0414 31.9066C40.0414 32.7118 39.8849 33.509 39.5809 34.2529C39.2768 34.9968 38.8311 35.6727 38.2693 36.242C37.7076 36.8114 37.0407 37.263 36.3066 37.5711C35.5726 37.8793 34.7859 38.0379 33.9914 38.0379C32.3868 38.0379 30.848 37.3919 29.7134 36.242C28.5788 35.0922 27.9414 33.5327 27.9414 31.9066C27.9414 30.2805 28.5788 28.7209 29.7134 27.5711C30.848 26.4212 32.3868 25.7753 33.9914 25.7753C34.7859 25.7753 35.5726 25.9339 36.3066 26.242C37.0407 26.5501 37.7076 27.0017 38.2693 27.5711C38.8311 28.1404 39.2768 28.8163 39.5809 29.5602C39.8849 30.3041 40.0414 31.1014 40.0414 31.9066ZM36.2014 31.9066C36.2014 31.3018 35.9644 30.7218 35.5424 30.2942C35.1205 29.8666 34.5482 29.6263 33.9514 29.6263C33.3547 29.6263 32.7824 29.8666 32.3604 30.2942C31.9385 30.7218 31.7014 31.3018 31.7014 31.9066C31.7014 32.5113 31.9385 33.0913 32.3604 33.5189C32.7824 33.9466 33.3547 34.1868 33.9514 34.1868C34.5482 34.1868 35.1205 33.9466 35.5424 33.5189C35.9644 33.0913 36.2014 32.5113 36.2014 31.9066Z" fill="white"/>
<path id="Vector_3" d="M43.3513 44.3212C43.3513 45.1184 43.1964 45.9078 42.8954 46.6443C42.5944 47.3808 42.1531 48.05 41.5969 48.6137C41.0407 49.1774 40.3803 49.6246 39.6536 49.9296C38.9268 50.2347 38.1479 50.3917 37.3613 50.3917C36.5747 50.3917 35.7958 50.2347 35.0691 49.9296C34.3424 49.6246 33.682 49.1774 33.1258 48.6137C32.5696 48.05 32.1284 47.3808 31.8273 46.6443C31.5263 45.9078 31.3713 45.1184 31.3713 44.3212C31.3713 42.7112 32.0025 41.1672 33.1258 40.0288C34.2491 38.8903 35.7727 38.2507 37.3613 38.2507C38.95 38.2507 40.4736 38.8903 41.5969 40.0288C42.7203 41.1672 43.3513 42.7112 43.3513 44.3212ZM39.6814 44.4023C39.6814 43.7922 39.4422 43.207 39.0165 42.7756C38.5908 42.3442 38.0134 42.1018 37.4114 42.1018C36.8093 42.1018 36.2319 42.3442 35.8062 42.7756C35.3805 43.207 35.1414 43.7922 35.1414 44.4023C35.1414 45.0124 35.3805 45.5976 35.8062 46.029C36.2319 46.4604 36.8093 46.7028 37.4114 46.7028C38.0134 46.7028 38.5908 46.4604 39.0165 46.029C39.4422 45.5976 39.6814 45.0124 39.6814 44.4023Z" fill="white"/>
</g>
</svg>
