<svg width="100" height="39" viewBox="0 0 100 39" fill="none" xmlns="http://www.w3.org/2000/svg">
<g id="shape_16">
<path id="Vector" d="M69.5601 19.23C69.5601 24.3302 67.5341 29.2213 63.9277 32.8276C60.3214 36.434 55.4302 38.46 50.3301 38.46C45.23 38.46 40.3387 36.434 36.7324 32.8276C33.1261 29.2213 31.1001 24.3302 31.1001 19.23C31.1001 14.1299 33.1261 9.23871 36.7324 5.63239C40.3387 2.02606 45.23 0 50.3301 0C55.4302 0 60.3214 2.02606 63.9277 5.63239C67.5341 9.23871 69.5601 14.1299 69.5601 19.23Z" fill="#03BFE8"/>
<path id="Vector_2" d="M14.98 20.9099C14.98 22.8964 14.1909 24.8015 12.7863 26.2061C11.3816 27.6108 9.47646 28.3999 7.48999 28.3999C5.50352 28.3999 3.59843 27.6108 2.19379 26.2061C0.789139 24.8015 0 22.8964 0 20.9099C0 18.9234 0.789139 17.0183 2.19379 15.6136C3.59843 14.209 5.50352 13.4199 7.48999 13.4199C9.47646 13.4199 11.3816 14.209 12.7863 15.6136C14.1909 17.0183 14.98 18.9234 14.98 20.9099ZM10.31 20.9799C10.31 20.6109 10.2373 20.2455 10.0961 19.9045C9.95492 19.5636 9.74793 19.2539 9.487 18.9929C9.22607 18.732 8.9163 18.525 8.57538 18.3838C8.23445 18.2426 7.86901 18.1699 7.5 18.1699C7.13099 18.1699 6.76561 18.2426 6.42468 18.3838C6.08376 18.525 5.77399 18.732 5.51306 18.9929C5.25213 19.2539 5.04515 19.5636 4.90393 19.9045C4.76271 20.2455 4.69 20.6109 4.69 20.9799C4.69 21.7252 4.98608 22.4399 5.51306 22.9669C6.04004 23.4938 6.75474 23.7899 7.5 23.7899C8.24526 23.7899 8.96002 23.4938 9.487 22.9669C10.014 22.4399 10.31 21.7252 10.31 20.9799Z" fill="white"/>
<path id="Vector_3" d="M99.3901 20.8801C99.3901 22.8666 98.601 24.7717 97.1964 26.1764C95.7917 27.581 93.8866 28.3701 91.9001 28.3701C89.9137 28.3701 88.0085 27.581 86.6039 26.1764C85.1992 24.7717 84.4102 22.8666 84.4102 20.8801C84.4102 18.8937 85.1992 16.9886 86.6039 15.5839C88.0085 14.1793 89.9137 13.3901 91.9001 13.3901C93.8866 13.3901 95.7917 14.1793 97.1964 15.5839C98.601 16.9886 99.3901 18.8937 99.3901 20.8801ZM94.8201 20.9001C94.8201 20.1337 94.5157 19.3986 93.9737 18.8566C93.4317 18.3146 92.6966 18.0101 91.9301 18.0101C91.1636 18.0101 90.4286 18.3146 89.8866 18.8566C89.3446 19.3986 89.0402 20.1337 89.0402 20.9001C89.0402 21.6666 89.3446 22.4017 89.8866 22.9437C90.4286 23.4856 91.1636 23.7902 91.9301 23.7902C92.6966 23.7902 93.4317 23.4856 93.9737 22.9437C94.5157 22.4017 94.8201 21.6666 94.8201 20.9001Z" fill="white"/>
</g>
</svg>
