<svg width="50" height="50" viewBox="0 0 50 50" fill="none" xmlns="http://www.w3.org/2000/svg">
<circle cx="25" cy="25" r="25" fill="#03BFE8"/>
<path d="M36.25 25V30.625H13.75V15.625H25V13.75H13.75C13.2527 13.75 12.7758 13.9475 12.4242 14.2992C12.0725 14.6508 11.875 15.1277 11.875 15.625V30.625C11.875 31.1223 12.0725 31.5992 12.4242 31.9508C12.7758 32.3025 13.2527 32.5 13.75 32.5H21.25V36.25H17.5V38.125H32.5V36.25H28.75V32.5H36.25C36.7473 32.5 37.2242 32.3025 37.5758 31.9508C37.9275 31.5992 38.125 31.1223 38.125 30.625V25H36.25ZM26.875 36.25H23.125V32.5H26.875V36.25Z" fill="white"/>
<path d="M29.6875 24.0625L25 19.4125L26.4906 17.9406L29.6875 21.1094L36.6344 14.2188L38.125 15.7L29.6875 24.0625Z" fill="white"/>
</svg>
