<?xml version="1.0" standalone="no"?>
<!DOCTYPE svg PUBLIC "-//W3C//DTD SVG 20010904//EN"
 "http://www.w3.org/TR/2001/REC-SVG-20010904/DTD/svg10.dtd">
<svg version="1.0" xmlns="http://www.w3.org/2000/svg"
 width="2048.000000pt" height="2048.000000pt" viewBox="0 0 2048.000000 2048.000000"
 preserveAspectRatio="xMidYMid meet">
<metadata>
Created by potrace 1.14, written by Peter Selinger 2001-2017
</metadata>
<g transform="translate(0.000000,2048.000000) scale(0.100000,-0.100000)"
fill="#000000" stroke="none">
<path d="M3099 20476 c-2 -2 -41 -7 -85 -10 -45 -4 -93 -9 -105 -11 -13 -2
-40 -6 -59 -9 -36 -4 -145 -22 -190 -31 -157 -29 -478 -128 -606 -185 -36 -17
-72 -30 -80 -30 -8 0 -14 -4 -14 -10 0 -5 -6 -10 -14 -10 -17 0 -204 -96 -316
-163 -71 -42 -166 -105 -284 -187 -21 -15 -146 -114 -201 -160 -37 -31 -288
-282 -331 -331 -121 -138 -301 -394 -389 -554 -159 -287 -298 -653 -351 -920
-2 -11 -8 -42 -14 -70 -5 -27 -12 -68 -15 -90 -2 -22 -9 -67 -15 -100 -5 -33
-13 -98 -17 -145 -10 -112 -10 -14342 0 -14445 4 -44 10 -93 12 -110 3 -16 7
-43 9 -60 5 -34 24 -148 31 -185 2 -14 16 -70 30 -125 14 -55 28 -109 30 -119
2 -10 9 -33 15 -51 6 -18 12 -41 15 -51 2 -10 15 -50 30 -89 15 -38 35 -92 45
-120 20 -56 54 -132 111 -250 126 -257 282 -492 488 -730 56 -64 260 -266 334
-329 365 -312 815 -551 1272 -675 83 -23 161 -44 175 -46 14 -3 50 -9 80 -15
30 -5 69 -12 85 -15 71 -13 176 -26 255 -33 116 -10 14323 -9 14430 1 47 4 96
9 110 11 14 3 48 7 75 11 28 3 93 15 146 26 52 11 104 21 115 23 56 11 193 50
299 84 279 91 558 229 820 406 238 160 538 434 710 650 300 375 509 784 630
1230 15 54 29 109 31 123 3 14 11 53 19 87 11 52 25 132 41 246 2 14 7 66 11
115 10 116 11 14322 0 14435 -7 86 -10 103 -28 220 -64 395 -195 774 -381
1098 -26 46 -48 85 -48 88 0 13 -193 287 -267 379 -89 112 -323 353 -424 438
-84 70 -225 177 -309 233 -345 232 -764 410 -1150 490 -14 3 -44 9 -68 15 -24
5 -60 11 -80 14 -20 3 -46 7 -57 9 -11 2 -51 7 -90 11 -38 4 -79 10 -90 14
-21 6 -14369 14 -14376 7z"/>
</g>
</svg>
